<svg version="1.2" baseProfile="tiny-ps" xmlns="http://www.w3.org/2000/svg" viewBox="0 0 77 87" width="77" height="87">
	<title>more menu</title>
	<style>
		tspan { white-space:pre }
		.shp0 { fill: #003466;stroke: #003466;paint-order:stroke fill markers;stroke-width: 4 } 
	</style>
	<g id="more menu">
		<g id="bottom navigation copy">
			<path id="-e-home" class="shp0" d="M71.04 43.67C69.96 43.67 69.08 44.54 69.08 45.61L69.08 80.12L48.11 80.12L48.11 58.46C48.11 57.39 47.23 56.52 46.15 56.52L30.84 56.52C29.76 56.52 28.89 57.39 28.89 58.46L28.89 75.64C28.89 76.7 29.76 77.57 30.84 77.57C31.92 77.57 32.79 76.7 32.79 75.64L32.79 60.4L44.2 60.4L44.2 80.12L7.91 80.12L7.91 32.71L38.5 8.42L69.82 33.29C70.66 33.96 71.89 33.82 72.56 32.99C73.24 32.15 73.1 30.93 72.26 30.27L39.72 4.42C39 3.85 37.99 3.85 37.27 4.42L4.73 30.27C4.27 30.63 4 31.19 4 31.78L4 82.06C4 83.13 4.87 84 5.95 84L71.04 84C72.12 84 72.99 83.13 72.99 82.06L72.99 45.61C72.99 44.54 72.12 43.67 71.04 43.67Z" />
		</g>
	</g>
</svg>