<svg height="682.66669pt" fill="#FFF" viewBox="-21 -21 682.66669 682.66669" width="682.66669pt" xmlns="http://www.w3.org/2000/svg"><path fill="#FFF" d="m75 320h16.25v78.160156l73.367188-78.160156h141.632812c41.359375 0 75-33.640625 75-75v-170c0-41.359375-33.640625-75-75-75h-231.25c-41.359375 0-75 33.640625-75 75v170c0 41.359375 33.640625 75 75 75zm-25-245c0-13.785156 11.214844-25 25-25h231.25c13.785156 0 25 11.214844 25 25v170c0 13.785156-11.214844 25-25 25h-163.273438l-1.726562 1.839844v-1.839844h-66.25c-13.785156 0-25-11.214844-25-25zm590 37.5v132.5c0 41.359375-33.640625 75-75 75h-16.25v76.9375l-72.296875-76.9375h-70.265625c10.941406-14.539062 18.789062-31.539062 22.546875-50h136.265625c13.785156 0 25-11.214844 25-25v-132.5c0-13.785156-11.214844-25-25-25h-133.75v-12.5c0-13.0625-2.015625-25.65625-5.75-37.5h139.5c41.359375 0 75 33.640625 75 75zm-22.417969 441.234375c-8.925781-7.960937-20.859375-16.628906-35.957031-23.625 6.898438-11.339844 10.875-24.644531 10.875-38.859375 0-41.359375-33.640625-75-75-75s-75 33.640625-75 75c0 14.027344 3.882812 27.164062 10.609375 38.40625-14.167969 6.441406-25.59375 14.371094-34.40625 21.882812-8.816406-7.46875-20.226563-15.359374-34.371094-21.777343 6.765625-11.265625 10.667969-24.441407 10.667969-38.511719 0-41.359375-33.640625-75-75-75s-75 33.640625-75 75c0 14.070312 3.902344 27.246094 10.667969 38.507812-14.144531 6.421876-25.554688 14.3125-34.371094 21.773438-8.40625-7.15625-19.1875-14.699219-32.460937-20.96875 7.070312-11.4375 11.164062-24.902344 11.164062-39.3125 0-41.359375-33.640625-75-75-75s-75 33.640625-75 75c0 13.847656 3.785156 26.816406 10.355469 37.964844-16.035157 7.144531-28.628907 16.214844-37.9375 24.519531-14.25 12.707031-22.417969 31.035156-22.417969 50.296875v35.96875h50v-35.96875c0-5.015625 2.074219-9.75 5.699219-12.980469 12.683593-11.316406 34.683593-24.800781 67.425781-24.800781s54.742188 13.484375 67.425781 24.800781c3.625 3.230469 5.699219 7.964844 5.699219 12.980469v35.96875h50v-35.96875c0-4.988281 2.089844-9.699219 5.734375-12.929688 12.785156-11.335937 34.972656-24.851562 68.015625-24.851562s55.230469 13.515625 68.023438 24.851562c3.636718 3.230469 5.726562 7.941407 5.726562 12.929688v35.96875h50v-35.96875c0-5.015625 2.074219-9.75 5.699219-12.980469 12.683593-11.316406 34.683593-24.800781 67.425781-24.800781s54.742188 13.484375 67.425781 24.800781c3.625 3.230469 5.699219 7.964844 5.699219 12.980469v35.96875h50v-35.96875c0-19.261719-8.167969-37.589844-22.417969-50.296875zm-492.582031-87.484375c13.785156 0 25 11.214844 25 25s-11.214844 25-25 25-25-11.214844-25-25 11.214844-25 25-25zm170 25c0-13.785156 11.214844-25 25-25s25 11.214844 25 25-11.214844 25-25 25-25-11.214844-25-25zm222.5-25c13.785156 0 25 11.214844 25 25s-11.214844 25-25 25-25-11.214844-25-25 11.214844-25 25-25zm0 0"/></svg>